%TF.GenerationSoftware,KiCad,Pcbnew,7.0.2-0*%
%TF.CreationDate,2023-09-29T11:13:34+09:30*%
%TF.ProjectId,ESP32DMX,45535033-3244-44d5-982e-6b696361645f,rev?*%
%TF.SameCoordinates,Original*%
%TF.FileFunction,Copper,L2,Bot*%
%TF.FilePolarity,Positive*%
%FSLAX46Y46*%
G04 Gerber Fmt 4.6, Leading zero omitted, Abs format (unit mm)*
G04 Created by KiCad (PCBNEW 7.0.2-0) date 2023-09-29 11:13:34*
%MOMM*%
%LPD*%
G01*
G04 APERTURE LIST*
%TA.AperFunction,ComponentPad*%
%ADD10R,2.000000X2.000000*%
%TD*%
%TA.AperFunction,ComponentPad*%
%ADD11C,2.000000*%
%TD*%
%TA.AperFunction,ComponentPad*%
%ADD12R,1.210000X1.210000*%
%TD*%
%TA.AperFunction,ComponentPad*%
%ADD13C,1.210000*%
%TD*%
%TA.AperFunction,ComponentPad*%
%ADD14C,1.600000*%
%TD*%
%TA.AperFunction,ComponentPad*%
%ADD15R,1.700000X1.700000*%
%TD*%
%TA.AperFunction,ComponentPad*%
%ADD16O,1.700000X1.700000*%
%TD*%
G04 APERTURE END LIST*
D10*
%TO.P,U1,1,3V3*%
%TO.N,unconnected-(U1-3V3-Pad1)*%
X93980000Y-101875000D03*
D11*
%TO.P,U1,2,GND*%
%TO.N,GND*%
X93980000Y-99335000D03*
%TO.P,U1,3,D15*%
%TO.N,unconnected-(U1-D15-Pad3)*%
X93980000Y-96795000D03*
%TO.P,U1,4,D2*%
%TO.N,unconnected-(U1-D2-Pad4)*%
X93980000Y-94255000D03*
%TO.P,U1,5,D4*%
%TO.N,unconnected-(U1-D4-Pad5)*%
X93980000Y-91715000D03*
%TO.P,U1,6,RX2*%
%TO.N,unconnected-(U1-RX2-Pad6)*%
X93980000Y-89175000D03*
%TO.P,U1,7,TX2*%
%TO.N,unconnected-(U1-TX2-Pad7)*%
X93980000Y-86635000D03*
%TO.P,U1,8,D5*%
%TO.N,unconnected-(U1-D5-Pad8)*%
X93980000Y-84095000D03*
%TO.P,U1,9,D18*%
%TO.N,unconnected-(U1-D18-Pad9)*%
X93980000Y-81555000D03*
%TO.P,U1,10,D19*%
%TO.N,unconnected-(U1-D19-Pad10)*%
X93980000Y-79015000D03*
%TO.P,U1,11,D21*%
%TO.N,unconnected-(U1-D21-Pad11)*%
X93980000Y-76475000D03*
%TO.P,U1,12,RX0*%
%TO.N,unconnected-(U1-RX0-Pad12)*%
X93980000Y-73935000D03*
%TO.P,U1,13,TX0*%
%TO.N,unconnected-(U1-TX0-Pad13)*%
X93980000Y-71395000D03*
%TO.P,U1,14,D22*%
%TO.N,unconnected-(U1-D22-Pad14)*%
X93980000Y-68855000D03*
%TO.P,U1,15,D23*%
%TO.N,unconnected-(U1-D23-Pad15)*%
X93980000Y-66315000D03*
%TO.P,U1,30,VIN*%
%TO.N,+5V*%
X68580000Y-101875000D03*
%TO.P,U1,29,GND*%
%TO.N,GND*%
X68580000Y-99335000D03*
%TO.P,U1,28,D13*%
%TO.N,unconnected-(U1-D13-Pad28)*%
X68580000Y-96795000D03*
%TO.P,U1,27,D12*%
%TO.N,unconnected-(U1-D12-Pad27)*%
X68580000Y-94255000D03*
%TO.P,U1,26,D14*%
%TO.N,/DMX_DATA*%
X68580000Y-91715000D03*
%TO.P,U1,25,D27*%
%TO.N,unconnected-(U1-D27-Pad25)*%
X68580000Y-89175000D03*
%TO.P,U1,24,D26*%
%TO.N,unconnected-(U1-D26-Pad24)*%
X68580000Y-86635000D03*
%TO.P,U1,23,D25*%
%TO.N,unconnected-(U1-D25-Pad23)*%
X68580000Y-84095000D03*
%TO.P,U1,22,D33*%
%TO.N,unconnected-(U1-D33-Pad22)*%
X68580000Y-81555000D03*
%TO.P,U1,21,D32*%
%TO.N,unconnected-(U1-D32-Pad21)*%
X68580000Y-79015000D03*
%TO.P,U1,20,D35*%
%TO.N,unconnected-(U1-D35-Pad20)*%
X68580000Y-76475000D03*
%TO.P,U1,19,D34*%
%TO.N,unconnected-(U1-D34-Pad19)*%
X68580000Y-73935000D03*
%TO.P,U1,18,VN*%
%TO.N,unconnected-(U1-VN-Pad18)*%
X68580000Y-71395000D03*
%TO.P,U1,17,VP*%
%TO.N,unconnected-(U1-VP-Pad17)*%
X68580000Y-68855000D03*
%TO.P,U1,16,EN*%
%TO.N,unconnected-(U1-EN-Pad16)*%
X68580000Y-66315000D03*
%TD*%
D12*
%TO.P,U2,1,RO*%
%TO.N,unconnected-(U2-RO-Pad1)*%
X55560000Y-83820000D03*
D13*
%TO.P,U2,2,~{RE}*%
%TO.N,+5V*%
X55560000Y-86360000D03*
%TO.P,U2,3,DE*%
X55560000Y-88900000D03*
%TO.P,U2,4,DI*%
%TO.N,/DMX_DATA*%
X55560000Y-91440000D03*
%TO.P,U2,5,GND*%
%TO.N,GND*%
X63500000Y-91440000D03*
%TO.P,U2,6,A*%
%TO.N,/XLR_PIN3*%
X63500000Y-88900000D03*
%TO.P,U2,7,B*%
%TO.N,/XLR_PIN2*%
X63500000Y-86360000D03*
%TO.P,U2,8,VCC*%
%TO.N,+5V*%
X63500000Y-83820000D03*
%TD*%
D14*
%TO.P,C1,1*%
%TO.N,+5V*%
X57190000Y-77470000D03*
%TO.P,C1,2*%
%TO.N,GND*%
X62190000Y-77470000D03*
%TD*%
D15*
%TO.P,J1,1,Pin_1*%
%TO.N,GND*%
X57150000Y-69850000D03*
D16*
%TO.P,J1,2,Pin_2*%
%TO.N,/XLR_PIN2*%
X59690000Y-69850000D03*
%TO.P,J1,3,Pin_3*%
%TO.N,/XLR_PIN3*%
X62230000Y-69850000D03*
%TD*%
M02*
