M48
; DRILL file {KiCad 7.0.2-0} date 2023 September 29, Friday 11:13:40
; FORMAT={-:-/ absolute / inch / decimal}
; #@! TF.CreationDate,2023-09-29T11:13:40+09:30
; #@! TF.GenerationSoftware,Kicad,Pcbnew,7.0.2-0
; #@! TF.FileFunction,Plated,1,2,PTH
FMAT,2
INCH
; #@! TA.AperFunction,Plated,PTH,ComponentDrill
T1C0.0315
; #@! TA.AperFunction,Plated,PTH,ComponentDrill
T2C0.0339
; #@! TA.AperFunction,Plated,PTH,ComponentDrill
T3C0.0394
; #@! TA.AperFunction,Plated,PTH,ComponentDrill
T4C0.0402
%
G90
G05
T1
X2.2516Y-3.05
X2.4484Y-3.05
T2
X2.1874Y-3.3
X2.1874Y-3.4
X2.1874Y-3.5
X2.1874Y-3.6
X2.5Y-3.3
X2.5Y-3.4
X2.5Y-3.5
X2.5Y-3.6
T3
X2.25Y-2.75
X2.35Y-2.75
X2.45Y-2.75
T4
X2.7Y-2.6108
X2.7Y-2.7108
X2.7Y-2.8108
X2.7Y-2.9108
X2.7Y-3.0108
X2.7Y-3.1108
X2.7Y-3.2108
X2.7Y-3.3108
X2.7Y-3.4108
X2.7Y-3.5108
X2.7Y-3.6108
X2.7Y-3.7108
X2.7Y-3.8108
X2.7Y-3.9108
X2.7Y-4.0108
X3.7Y-2.6108
X3.7Y-2.7108
X3.7Y-2.8108
X3.7Y-2.9108
X3.7Y-3.0108
X3.7Y-3.1108
X3.7Y-3.2108
X3.7Y-3.3108
X3.7Y-3.4108
X3.7Y-3.5108
X3.7Y-3.6108
X3.7Y-3.7108
X3.7Y-3.8108
X3.7Y-3.9108
X3.7Y-4.0108
T0
M30
