%TF.GenerationSoftware,KiCad,Pcbnew,7.0.2-0*%
%TF.CreationDate,2023-09-29T11:13:34+09:30*%
%TF.ProjectId,ESP32DMX,45535033-3244-44d5-982e-6b696361645f,rev?*%
%TF.SameCoordinates,Original*%
%TF.FileFunction,Soldermask,Bot*%
%TF.FilePolarity,Negative*%
%FSLAX46Y46*%
G04 Gerber Fmt 4.6, Leading zero omitted, Abs format (unit mm)*
G04 Created by KiCad (PCBNEW 7.0.2-0) date 2023-09-29 11:13:34*
%MOMM*%
%LPD*%
G01*
G04 APERTURE LIST*
G04 Aperture macros list*
%AMRoundRect*
0 Rectangle with rounded corners*
0 $1 Rounding radius*
0 $2 $3 $4 $5 $6 $7 $8 $9 X,Y pos of 4 corners*
0 Add a 4 corners polygon primitive as box body*
4,1,4,$2,$3,$4,$5,$6,$7,$8,$9,$2,$3,0*
0 Add four circle primitives for the rounded corners*
1,1,$1+$1,$2,$3*
1,1,$1+$1,$4,$5*
1,1,$1+$1,$6,$7*
1,1,$1+$1,$8,$9*
0 Add four rect primitives between the rounded corners*
20,1,$1+$1,$2,$3,$4,$5,0*
20,1,$1+$1,$4,$5,$6,$7,0*
20,1,$1+$1,$6,$7,$8,$9,0*
20,1,$1+$1,$8,$9,$2,$3,0*%
G04 Aperture macros list end*
%ADD10RoundRect,0.102000X1.000000X1.000000X-1.000000X1.000000X-1.000000X-1.000000X1.000000X-1.000000X0*%
%ADD11C,2.204000*%
%ADD12C,3.200000*%
%ADD13RoundRect,0.102000X-0.605000X-0.605000X0.605000X-0.605000X0.605000X0.605000X-0.605000X0.605000X0*%
%ADD14C,1.414000*%
%ADD15C,1.600000*%
%ADD16R,1.700000X1.700000*%
%ADD17O,1.700000X1.700000*%
G04 APERTURE END LIST*
D10*
%TO.C,U1*%
X93980000Y-101875000D03*
D11*
X93980000Y-99335000D03*
X93980000Y-96795000D03*
X93980000Y-94255000D03*
X93980000Y-91715000D03*
X93980000Y-89175000D03*
X93980000Y-86635000D03*
X93980000Y-84095000D03*
X93980000Y-81555000D03*
X93980000Y-79015000D03*
X93980000Y-76475000D03*
X93980000Y-73935000D03*
X93980000Y-71395000D03*
X93980000Y-68855000D03*
X93980000Y-66315000D03*
X68580000Y-101875000D03*
X68580000Y-99335000D03*
X68580000Y-96795000D03*
X68580000Y-94255000D03*
X68580000Y-91715000D03*
X68580000Y-89175000D03*
X68580000Y-86635000D03*
X68580000Y-84095000D03*
X68580000Y-81555000D03*
X68580000Y-79015000D03*
X68580000Y-76475000D03*
X68580000Y-73935000D03*
X68580000Y-71395000D03*
X68580000Y-68855000D03*
X68580000Y-66315000D03*
%TD*%
D12*
%TO.C,REF\u002A\u002A*%
X59690000Y-107950000D03*
%TD*%
D13*
%TO.C,U2*%
X55560000Y-83820000D03*
D14*
X55560000Y-86360000D03*
X55560000Y-88900000D03*
X55560000Y-91440000D03*
X63500000Y-91440000D03*
X63500000Y-88900000D03*
X63500000Y-86360000D03*
X63500000Y-83820000D03*
%TD*%
D15*
%TO.C,C1*%
X57190000Y-77470000D03*
X62190000Y-77470000D03*
%TD*%
D16*
%TO.C,J1*%
X57150000Y-69850000D03*
D17*
X59690000Y-69850000D03*
X62230000Y-69850000D03*
%TD*%
D12*
%TO.C,REF\u002A\u002A*%
X59690000Y-63500000D03*
%TD*%
M02*
