%TF.GenerationSoftware,KiCad,Pcbnew,7.0.2-0*%
%TF.CreationDate,2023-09-29T11:13:34+09:30*%
%TF.ProjectId,ESP32DMX,45535033-3244-44d5-982e-6b696361645f,rev?*%
%TF.SameCoordinates,Original*%
%TF.FileFunction,Copper,L1,Top*%
%TF.FilePolarity,Positive*%
%FSLAX46Y46*%
G04 Gerber Fmt 4.6, Leading zero omitted, Abs format (unit mm)*
G04 Created by KiCad (PCBNEW 7.0.2-0) date 2023-09-29 11:13:34*
%MOMM*%
%LPD*%
G01*
G04 APERTURE LIST*
%TA.AperFunction,ComponentPad*%
%ADD10R,2.000000X2.000000*%
%TD*%
%TA.AperFunction,ComponentPad*%
%ADD11C,2.000000*%
%TD*%
%TA.AperFunction,ComponentPad*%
%ADD12R,1.210000X1.210000*%
%TD*%
%TA.AperFunction,ComponentPad*%
%ADD13C,1.210000*%
%TD*%
%TA.AperFunction,ComponentPad*%
%ADD14C,1.600000*%
%TD*%
%TA.AperFunction,ComponentPad*%
%ADD15R,1.700000X1.700000*%
%TD*%
%TA.AperFunction,ComponentPad*%
%ADD16O,1.700000X1.700000*%
%TD*%
%TA.AperFunction,Conductor*%
%ADD17C,0.250000*%
%TD*%
G04 APERTURE END LIST*
D10*
%TO.P,U1,1,3V3*%
%TO.N,unconnected-(U1-3V3-Pad1)*%
X93980000Y-101875000D03*
D11*
%TO.P,U1,2,GND*%
%TO.N,GND*%
X93980000Y-99335000D03*
%TO.P,U1,3,D15*%
%TO.N,unconnected-(U1-D15-Pad3)*%
X93980000Y-96795000D03*
%TO.P,U1,4,D2*%
%TO.N,unconnected-(U1-D2-Pad4)*%
X93980000Y-94255000D03*
%TO.P,U1,5,D4*%
%TO.N,unconnected-(U1-D4-Pad5)*%
X93980000Y-91715000D03*
%TO.P,U1,6,RX2*%
%TO.N,unconnected-(U1-RX2-Pad6)*%
X93980000Y-89175000D03*
%TO.P,U1,7,TX2*%
%TO.N,unconnected-(U1-TX2-Pad7)*%
X93980000Y-86635000D03*
%TO.P,U1,8,D5*%
%TO.N,unconnected-(U1-D5-Pad8)*%
X93980000Y-84095000D03*
%TO.P,U1,9,D18*%
%TO.N,unconnected-(U1-D18-Pad9)*%
X93980000Y-81555000D03*
%TO.P,U1,10,D19*%
%TO.N,unconnected-(U1-D19-Pad10)*%
X93980000Y-79015000D03*
%TO.P,U1,11,D21*%
%TO.N,unconnected-(U1-D21-Pad11)*%
X93980000Y-76475000D03*
%TO.P,U1,12,RX0*%
%TO.N,unconnected-(U1-RX0-Pad12)*%
X93980000Y-73935000D03*
%TO.P,U1,13,TX0*%
%TO.N,unconnected-(U1-TX0-Pad13)*%
X93980000Y-71395000D03*
%TO.P,U1,14,D22*%
%TO.N,unconnected-(U1-D22-Pad14)*%
X93980000Y-68855000D03*
%TO.P,U1,15,D23*%
%TO.N,unconnected-(U1-D23-Pad15)*%
X93980000Y-66315000D03*
%TO.P,U1,30,VIN*%
%TO.N,+5V*%
X68580000Y-101875000D03*
%TO.P,U1,29,GND*%
%TO.N,GND*%
X68580000Y-99335000D03*
%TO.P,U1,28,D13*%
%TO.N,unconnected-(U1-D13-Pad28)*%
X68580000Y-96795000D03*
%TO.P,U1,27,D12*%
%TO.N,unconnected-(U1-D12-Pad27)*%
X68580000Y-94255000D03*
%TO.P,U1,26,D14*%
%TO.N,/DMX_DATA*%
X68580000Y-91715000D03*
%TO.P,U1,25,D27*%
%TO.N,unconnected-(U1-D27-Pad25)*%
X68580000Y-89175000D03*
%TO.P,U1,24,D26*%
%TO.N,unconnected-(U1-D26-Pad24)*%
X68580000Y-86635000D03*
%TO.P,U1,23,D25*%
%TO.N,unconnected-(U1-D25-Pad23)*%
X68580000Y-84095000D03*
%TO.P,U1,22,D33*%
%TO.N,unconnected-(U1-D33-Pad22)*%
X68580000Y-81555000D03*
%TO.P,U1,21,D32*%
%TO.N,unconnected-(U1-D32-Pad21)*%
X68580000Y-79015000D03*
%TO.P,U1,20,D35*%
%TO.N,unconnected-(U1-D35-Pad20)*%
X68580000Y-76475000D03*
%TO.P,U1,19,D34*%
%TO.N,unconnected-(U1-D34-Pad19)*%
X68580000Y-73935000D03*
%TO.P,U1,18,VN*%
%TO.N,unconnected-(U1-VN-Pad18)*%
X68580000Y-71395000D03*
%TO.P,U1,17,VP*%
%TO.N,unconnected-(U1-VP-Pad17)*%
X68580000Y-68855000D03*
%TO.P,U1,16,EN*%
%TO.N,unconnected-(U1-EN-Pad16)*%
X68580000Y-66315000D03*
%TD*%
D12*
%TO.P,U2,1,RO*%
%TO.N,unconnected-(U2-RO-Pad1)*%
X55560000Y-83820000D03*
D13*
%TO.P,U2,2,~{RE}*%
%TO.N,+5V*%
X55560000Y-86360000D03*
%TO.P,U2,3,DE*%
X55560000Y-88900000D03*
%TO.P,U2,4,DI*%
%TO.N,/DMX_DATA*%
X55560000Y-91440000D03*
%TO.P,U2,5,GND*%
%TO.N,GND*%
X63500000Y-91440000D03*
%TO.P,U2,6,A*%
%TO.N,/XLR_PIN3*%
X63500000Y-88900000D03*
%TO.P,U2,7,B*%
%TO.N,/XLR_PIN2*%
X63500000Y-86360000D03*
%TO.P,U2,8,VCC*%
%TO.N,+5V*%
X63500000Y-83820000D03*
%TD*%
D14*
%TO.P,C1,1*%
%TO.N,+5V*%
X57190000Y-77470000D03*
%TO.P,C1,2*%
%TO.N,GND*%
X62190000Y-77470000D03*
%TD*%
D15*
%TO.P,J1,1,Pin_1*%
%TO.N,GND*%
X57150000Y-69850000D03*
D16*
%TO.P,J1,2,Pin_2*%
%TO.N,/XLR_PIN2*%
X59690000Y-69850000D03*
%TO.P,J1,3,Pin_3*%
%TO.N,/XLR_PIN3*%
X62230000Y-69850000D03*
%TD*%
D17*
%TO.N,/XLR_PIN3*%
X62230000Y-69850000D02*
X65405000Y-73025000D01*
X65405000Y-73025000D02*
X65405000Y-86995000D01*
X65405000Y-86995000D02*
X63500000Y-88900000D01*
%TO.N,/XLR_PIN2*%
X63500000Y-86360000D02*
X64430000Y-85430000D01*
X64430000Y-85430000D02*
X64430000Y-74590000D01*
X64430000Y-74590000D02*
X59690000Y-69850000D01*
%TO.N,+5V*%
X61595000Y-97155000D02*
X56515000Y-97155000D01*
X66315000Y-101875000D02*
X61595000Y-97155000D01*
X54630000Y-95270000D02*
X54630000Y-89830000D01*
X54630000Y-89830000D02*
X55560000Y-88900000D01*
X56515000Y-97155000D02*
X54630000Y-95270000D01*
X61595000Y-83820000D02*
X59055000Y-86360000D01*
X63500000Y-83820000D02*
X61595000Y-83820000D01*
X59055000Y-86360000D02*
X55560000Y-86360000D01*
X55560000Y-86360000D02*
X55560000Y-88900000D01*
%TO.N,/DMX_DATA*%
X67035000Y-91715000D02*
X64770000Y-93980000D01*
X58100000Y-93980000D02*
X55560000Y-91440000D01*
X68580000Y-91715000D02*
X67035000Y-91715000D01*
X64770000Y-93980000D02*
X58100000Y-93980000D01*
%TO.N,+5V*%
X57190000Y-77470000D02*
X63500000Y-83780000D01*
X63500000Y-83780000D02*
X63500000Y-83820000D01*
X66315000Y-101875000D02*
X68580000Y-101875000D01*
%TD*%
%TA.AperFunction,Conductor*%
%TO.N,GND*%
G36*
X72443039Y-60979685D02*
G01*
X72488794Y-61032489D01*
X72500000Y-61083999D01*
X72500000Y-67375000D01*
X90190000Y-67375000D01*
X90190000Y-61084000D01*
X90209685Y-61016961D01*
X90262489Y-60971206D01*
X90314000Y-60960000D01*
X95126000Y-60960000D01*
X95193039Y-60979685D01*
X95238794Y-61032489D01*
X95250000Y-61084000D01*
X95250000Y-65161327D01*
X95230315Y-65228366D01*
X95177511Y-65274121D01*
X95108353Y-65284065D01*
X95044797Y-65255040D01*
X95034771Y-65245311D01*
X94999741Y-65207259D01*
X94803514Y-65054529D01*
X94803510Y-65054526D01*
X94803509Y-65054526D01*
X94584810Y-64936172D01*
X94584806Y-64936170D01*
X94584805Y-64936170D01*
X94349615Y-64855429D01*
X94104335Y-64814500D01*
X93855665Y-64814500D01*
X93610384Y-64855429D01*
X93375194Y-64936170D01*
X93156485Y-65054529D01*
X92960259Y-65207259D01*
X92960256Y-65207261D01*
X92960256Y-65207262D01*
X92916273Y-65255040D01*
X92791837Y-65390214D01*
X92655825Y-65598395D01*
X92555938Y-65826117D01*
X92494891Y-66067183D01*
X92474356Y-66314999D01*
X92494891Y-66562816D01*
X92494891Y-66562819D01*
X92494892Y-66562821D01*
X92555937Y-66803881D01*
X92600960Y-66906523D01*
X92655825Y-67031604D01*
X92655827Y-67031607D01*
X92791836Y-67239785D01*
X92930416Y-67390323D01*
X92960256Y-67422738D01*
X93043008Y-67487147D01*
X93083821Y-67543858D01*
X93087494Y-67613631D01*
X93052863Y-67674314D01*
X93043008Y-67682853D01*
X92960256Y-67747261D01*
X92791837Y-67930214D01*
X92655825Y-68138395D01*
X92565780Y-68343678D01*
X92555937Y-68366119D01*
X92505427Y-68565576D01*
X92494891Y-68607183D01*
X92474356Y-68854999D01*
X92494891Y-69102816D01*
X92494891Y-69102819D01*
X92494892Y-69102821D01*
X92555937Y-69343881D01*
X92565341Y-69365320D01*
X92655825Y-69571604D01*
X92655827Y-69571607D01*
X92791836Y-69779785D01*
X92930416Y-69930323D01*
X92960256Y-69962738D01*
X93043008Y-70027147D01*
X93083821Y-70083858D01*
X93087494Y-70153631D01*
X93052863Y-70214314D01*
X93043008Y-70222853D01*
X92960256Y-70287261D01*
X92791837Y-70470214D01*
X92655825Y-70678395D01*
X92597867Y-70810528D01*
X92555937Y-70906119D01*
X92517681Y-71057188D01*
X92494891Y-71147183D01*
X92474356Y-71394999D01*
X92494891Y-71642816D01*
X92494891Y-71642819D01*
X92494892Y-71642821D01*
X92555937Y-71883881D01*
X92600960Y-71986523D01*
X92655825Y-72111604D01*
X92655827Y-72111607D01*
X92791836Y-72319785D01*
X92930416Y-72470323D01*
X92960256Y-72502738D01*
X93043008Y-72567147D01*
X93083821Y-72623858D01*
X93087494Y-72693631D01*
X93052863Y-72754314D01*
X93043008Y-72762853D01*
X92960256Y-72827261D01*
X92869018Y-72926373D01*
X92791836Y-73010215D01*
X92787309Y-73017144D01*
X92655825Y-73218395D01*
X92555938Y-73446117D01*
X92494891Y-73687183D01*
X92474356Y-73935000D01*
X92494891Y-74182816D01*
X92494891Y-74182819D01*
X92494892Y-74182821D01*
X92555937Y-74423881D01*
X92600960Y-74526523D01*
X92655825Y-74651604D01*
X92655827Y-74651607D01*
X92791836Y-74859785D01*
X92930416Y-75010323D01*
X92960256Y-75042738D01*
X93043008Y-75107147D01*
X93083821Y-75163858D01*
X93087494Y-75233631D01*
X93052863Y-75294314D01*
X93043008Y-75302853D01*
X92960256Y-75367261D01*
X92791837Y-75550214D01*
X92655825Y-75758395D01*
X92565780Y-75963678D01*
X92555937Y-75986119D01*
X92510630Y-76165033D01*
X92494891Y-76227183D01*
X92474356Y-76474999D01*
X92494891Y-76722816D01*
X92494891Y-76722819D01*
X92494892Y-76722821D01*
X92555937Y-76963881D01*
X92582089Y-77023502D01*
X92655825Y-77191604D01*
X92655827Y-77191607D01*
X92791836Y-77399785D01*
X92930416Y-77550323D01*
X92960256Y-77582738D01*
X93043008Y-77647147D01*
X93083821Y-77703858D01*
X93087494Y-77773631D01*
X93052863Y-77834314D01*
X93043008Y-77842853D01*
X92960256Y-77907261D01*
X92805215Y-78075681D01*
X92791836Y-78090215D01*
X92761258Y-78137019D01*
X92655825Y-78298395D01*
X92580533Y-78470046D01*
X92555937Y-78526119D01*
X92497940Y-78755141D01*
X92494891Y-78767183D01*
X92474356Y-79014999D01*
X92494891Y-79262816D01*
X92494891Y-79262819D01*
X92494892Y-79262821D01*
X92555937Y-79503881D01*
X92600960Y-79606523D01*
X92655825Y-79731604D01*
X92655827Y-79731607D01*
X92791836Y-79939785D01*
X92930416Y-80090323D01*
X92960256Y-80122738D01*
X93043008Y-80187147D01*
X93083821Y-80243858D01*
X93087494Y-80313631D01*
X93052863Y-80374314D01*
X93043008Y-80382853D01*
X92960256Y-80447261D01*
X92791837Y-80630214D01*
X92655825Y-80838395D01*
X92555938Y-81066117D01*
X92494891Y-81307183D01*
X92474356Y-81554999D01*
X92494891Y-81802816D01*
X92494891Y-81802819D01*
X92494892Y-81802821D01*
X92555937Y-82043881D01*
X92600960Y-82146523D01*
X92655825Y-82271604D01*
X92655827Y-82271607D01*
X92791836Y-82479785D01*
X92960256Y-82662737D01*
X92960256Y-82662738D01*
X93043008Y-82727147D01*
X93083821Y-82783858D01*
X93087494Y-82853631D01*
X93052863Y-82914314D01*
X93043008Y-82922853D01*
X92960256Y-82987261D01*
X92843738Y-83113834D01*
X92791836Y-83170215D01*
X92770495Y-83202880D01*
X92655825Y-83378395D01*
X92555938Y-83606117D01*
X92494891Y-83847183D01*
X92474356Y-84095000D01*
X92494891Y-84342816D01*
X92494891Y-84342819D01*
X92494892Y-84342821D01*
X92555937Y-84583881D01*
X92592542Y-84667331D01*
X92655825Y-84811604D01*
X92655827Y-84811607D01*
X92791836Y-85019785D01*
X92945387Y-85186586D01*
X92960256Y-85202738D01*
X93043008Y-85267147D01*
X93083821Y-85323858D01*
X93087494Y-85393631D01*
X93052863Y-85454314D01*
X93043008Y-85462853D01*
X92960256Y-85527261D01*
X92882215Y-85612037D01*
X92791836Y-85710215D01*
X92775970Y-85734500D01*
X92655825Y-85918395D01*
X92565780Y-86123678D01*
X92555937Y-86146119D01*
X92501775Y-86360000D01*
X92494891Y-86387183D01*
X92474356Y-86634999D01*
X92494891Y-86882816D01*
X92494891Y-86882819D01*
X92494892Y-86882821D01*
X92555937Y-87123881D01*
X92557641Y-87127765D01*
X92655825Y-87351604D01*
X92655827Y-87351607D01*
X92791836Y-87559785D01*
X92960256Y-87742738D01*
X93043008Y-87807146D01*
X93083820Y-87863856D01*
X93087495Y-87933629D01*
X93052863Y-87994312D01*
X93043009Y-88002851D01*
X92960257Y-88067260D01*
X92791837Y-88250214D01*
X92655825Y-88458395D01*
X92570759Y-88652328D01*
X92555937Y-88686119D01*
X92539393Y-88751451D01*
X92494891Y-88927183D01*
X92474356Y-89174999D01*
X92494891Y-89422816D01*
X92494891Y-89422819D01*
X92494892Y-89422821D01*
X92555937Y-89663881D01*
X92600960Y-89766523D01*
X92655825Y-89891604D01*
X92655827Y-89891607D01*
X92791836Y-90099785D01*
X92927300Y-90246938D01*
X92960256Y-90282738D01*
X93043008Y-90347147D01*
X93083821Y-90403858D01*
X93087494Y-90473631D01*
X93052863Y-90534314D01*
X93043008Y-90542853D01*
X92960256Y-90607261D01*
X92791837Y-90790214D01*
X92655825Y-90998395D01*
X92583837Y-91162514D01*
X92555937Y-91226119D01*
X92542007Y-91281129D01*
X92494891Y-91467183D01*
X92474356Y-91714999D01*
X92494891Y-91962816D01*
X92494891Y-91962819D01*
X92494892Y-91962821D01*
X92555937Y-92203881D01*
X92600960Y-92306523D01*
X92655825Y-92431604D01*
X92655827Y-92431607D01*
X92791836Y-92639785D01*
X92930416Y-92790323D01*
X92960256Y-92822738D01*
X93043008Y-92887147D01*
X93083821Y-92943858D01*
X93087494Y-93013631D01*
X93052863Y-93074314D01*
X93043008Y-93082853D01*
X92960256Y-93147261D01*
X92805215Y-93315680D01*
X92791836Y-93330215D01*
X92775970Y-93354500D01*
X92655825Y-93538395D01*
X92555938Y-93766117D01*
X92494891Y-94007183D01*
X92474356Y-94255000D01*
X92494891Y-94502816D01*
X92494891Y-94502819D01*
X92494892Y-94502821D01*
X92555937Y-94743881D01*
X92600960Y-94846523D01*
X92655825Y-94971604D01*
X92655827Y-94971607D01*
X92791836Y-95179785D01*
X92930416Y-95330323D01*
X92960256Y-95362738D01*
X93043008Y-95427147D01*
X93083821Y-95483858D01*
X93087494Y-95553631D01*
X93052863Y-95614314D01*
X93043008Y-95622853D01*
X92960256Y-95687261D01*
X92791837Y-95870214D01*
X92655825Y-96078395D01*
X92555938Y-96306117D01*
X92494891Y-96547183D01*
X92474356Y-96794999D01*
X92494891Y-97042816D01*
X92494891Y-97042819D01*
X92494892Y-97042821D01*
X92555937Y-97283881D01*
X92600960Y-97386523D01*
X92655825Y-97511604D01*
X92655827Y-97511607D01*
X92791836Y-97719785D01*
X92930416Y-97870323D01*
X92960256Y-97902738D01*
X93063744Y-97983286D01*
X93104557Y-98039996D01*
X93111343Y-98088823D01*
X93109941Y-98111389D01*
X93838634Y-98840081D01*
X93834839Y-98840627D01*
X93701438Y-98901549D01*
X93590605Y-98997587D01*
X93511318Y-99120960D01*
X93488866Y-99197419D01*
X92756564Y-98465116D01*
X92656266Y-98618634D01*
X92556413Y-98846278D01*
X92495386Y-99087267D01*
X92474858Y-99334999D01*
X92495386Y-99582732D01*
X92556413Y-99823721D01*
X92656267Y-100051368D01*
X92786941Y-100251380D01*
X92807128Y-100318269D01*
X92787948Y-100385455D01*
X92750412Y-100418476D01*
X92751942Y-100420520D01*
X92737670Y-100431203D01*
X92737669Y-100431204D01*
X92650883Y-100496172D01*
X92622454Y-100517454D01*
X92536204Y-100632668D01*
X92516047Y-100686714D01*
X92485909Y-100767517D01*
X92479500Y-100827127D01*
X92479500Y-100830448D01*
X92479500Y-100830449D01*
X92479500Y-102919560D01*
X92479500Y-102919578D01*
X92479501Y-102922872D01*
X92479853Y-102926152D01*
X92479854Y-102926159D01*
X92485909Y-102982484D01*
X92511056Y-103049907D01*
X92536204Y-103117331D01*
X92622454Y-103232546D01*
X92737669Y-103318796D01*
X92872517Y-103369091D01*
X92932127Y-103375500D01*
X95027872Y-103375499D01*
X95087483Y-103369091D01*
X95087484Y-103369090D01*
X95102969Y-103367426D01*
X95103183Y-103369420D01*
X95152354Y-103365902D01*
X95213678Y-103399385D01*
X95247165Y-103460707D01*
X95250000Y-103487069D01*
X95250000Y-110366000D01*
X95230315Y-110433039D01*
X95177511Y-110478794D01*
X95126000Y-110490000D01*
X56004000Y-110490000D01*
X55936961Y-110470315D01*
X55891206Y-110417511D01*
X55880000Y-110366000D01*
X55880000Y-108017764D01*
X57835787Y-108017764D01*
X57865413Y-108287016D01*
X57933928Y-108549087D01*
X58039871Y-108798392D01*
X58180982Y-109029611D01*
X58270253Y-109136881D01*
X58354255Y-109237820D01*
X58555998Y-109418582D01*
X58781910Y-109568044D01*
X58888211Y-109617876D01*
X59027177Y-109683021D01*
X59286562Y-109761058D01*
X59286569Y-109761060D01*
X59554561Y-109800500D01*
X59554564Y-109800500D01*
X59755369Y-109800500D01*
X59757631Y-109800500D01*
X59960156Y-109785677D01*
X60224553Y-109726780D01*
X60477558Y-109630014D01*
X60713777Y-109497441D01*
X60928177Y-109331888D01*
X61116186Y-109136881D01*
X61273799Y-108916579D01*
X61397656Y-108675675D01*
X61485118Y-108419305D01*
X61534319Y-108152933D01*
X61544212Y-107882235D01*
X61514586Y-107612982D01*
X61446072Y-107350912D01*
X61340130Y-107101610D01*
X61199018Y-106870390D01*
X61199017Y-106870388D01*
X61025746Y-106662181D01*
X60920759Y-106568112D01*
X60824002Y-106481418D01*
X60598090Y-106331956D01*
X60598086Y-106331954D01*
X60352822Y-106216978D01*
X60093437Y-106138941D01*
X60093431Y-106138940D01*
X59825439Y-106099500D01*
X59622369Y-106099500D01*
X59620120Y-106099664D01*
X59620109Y-106099665D01*
X59419843Y-106114322D01*
X59155449Y-106173219D01*
X58902441Y-106269986D01*
X58666223Y-106402559D01*
X58451825Y-106568109D01*
X58263813Y-106763120D01*
X58106201Y-106983420D01*
X57982342Y-107224329D01*
X57894881Y-107480695D01*
X57845680Y-107747066D01*
X57835787Y-108017764D01*
X55880000Y-108017764D01*
X55880000Y-97703952D01*
X55899685Y-97636913D01*
X55952489Y-97591158D01*
X56021647Y-97581214D01*
X56085203Y-97610239D01*
X56091681Y-97616271D01*
X56100530Y-97625120D01*
X56103615Y-97627513D01*
X56103701Y-97627580D01*
X56112573Y-97635158D01*
X56144418Y-97665062D01*
X56161974Y-97674714D01*
X56178231Y-97685392D01*
X56194064Y-97697674D01*
X56210185Y-97704649D01*
X56234156Y-97715023D01*
X56244643Y-97720160D01*
X56282908Y-97741197D01*
X56302316Y-97746180D01*
X56320710Y-97752478D01*
X56339105Y-97760438D01*
X56382254Y-97767271D01*
X56393680Y-97769638D01*
X56409222Y-97773629D01*
X56435980Y-97780500D01*
X56435981Y-97780500D01*
X56456016Y-97780500D01*
X56475413Y-97782026D01*
X56495196Y-97785160D01*
X56538674Y-97781050D01*
X56550344Y-97780500D01*
X61284548Y-97780500D01*
X61351587Y-97800185D01*
X61372229Y-97816819D01*
X65814196Y-102258787D01*
X65827096Y-102274888D01*
X65878223Y-102322900D01*
X65881020Y-102325611D01*
X65900529Y-102345120D01*
X65903709Y-102347587D01*
X65912571Y-102355155D01*
X65944418Y-102385062D01*
X65961972Y-102394712D01*
X65978236Y-102405396D01*
X65989972Y-102414499D01*
X65994064Y-102417673D01*
X66018909Y-102428424D01*
X66034152Y-102435021D01*
X66044631Y-102440154D01*
X66082908Y-102461197D01*
X66102306Y-102466177D01*
X66120708Y-102472477D01*
X66139104Y-102480438D01*
X66182261Y-102487273D01*
X66193664Y-102489634D01*
X66235981Y-102500500D01*
X66256016Y-102500500D01*
X66275413Y-102502026D01*
X66295196Y-102505160D01*
X66338674Y-102501050D01*
X66350344Y-102500500D01*
X67134850Y-102500500D01*
X67201889Y-102520185D01*
X67247644Y-102572989D01*
X67248406Y-102574690D01*
X67255825Y-102591604D01*
X67255827Y-102591607D01*
X67391836Y-102799785D01*
X67560256Y-102982738D01*
X67560259Y-102982740D01*
X67756485Y-103135470D01*
X67756487Y-103135471D01*
X67756491Y-103135474D01*
X67975190Y-103253828D01*
X68210386Y-103334571D01*
X68455665Y-103375500D01*
X68704335Y-103375500D01*
X68949614Y-103334571D01*
X69184810Y-103253828D01*
X69403509Y-103135474D01*
X69599744Y-102982738D01*
X69768164Y-102799785D01*
X69904173Y-102591607D01*
X70004063Y-102363881D01*
X70065108Y-102122821D01*
X70085643Y-101875000D01*
X70065108Y-101627179D01*
X70004063Y-101386119D01*
X69914016Y-101180833D01*
X69904174Y-101158395D01*
X69904173Y-101158393D01*
X69768164Y-100950215D01*
X69599744Y-100767262D01*
X69496253Y-100686712D01*
X69455442Y-100630003D01*
X69448655Y-100581176D01*
X69450056Y-100558609D01*
X68721365Y-99829918D01*
X68725161Y-99829373D01*
X68858562Y-99768451D01*
X68969395Y-99672413D01*
X69048682Y-99549040D01*
X69071133Y-99472580D01*
X69803434Y-100204882D01*
X69903730Y-100051369D01*
X70003586Y-99823721D01*
X70064613Y-99582732D01*
X70085141Y-99334999D01*
X70064613Y-99087267D01*
X70003586Y-98846278D01*
X69903730Y-98618630D01*
X69803434Y-98465116D01*
X69071132Y-99197418D01*
X69048682Y-99120960D01*
X68969395Y-98997587D01*
X68858562Y-98901549D01*
X68725161Y-98840627D01*
X68721366Y-98840081D01*
X69450056Y-98111390D01*
X69448655Y-98088825D01*
X69464147Y-98020694D01*
X69496250Y-97983290D01*
X69599744Y-97902738D01*
X69768164Y-97719785D01*
X69904173Y-97511607D01*
X70004063Y-97283881D01*
X70065108Y-97042821D01*
X70085643Y-96795000D01*
X70065108Y-96547179D01*
X70004063Y-96306119D01*
X69904173Y-96078393D01*
X69768164Y-95870215D01*
X69599744Y-95687262D01*
X69540727Y-95641327D01*
X69516992Y-95622853D01*
X69476179Y-95566143D01*
X69472504Y-95496370D01*
X69507136Y-95435687D01*
X69516992Y-95427147D01*
X69558651Y-95394722D01*
X69599744Y-95362738D01*
X69768164Y-95179785D01*
X69904173Y-94971607D01*
X70004063Y-94743881D01*
X70065108Y-94502821D01*
X70085643Y-94255000D01*
X70065108Y-94007179D01*
X70004063Y-93766119D01*
X69904173Y-93538393D01*
X69768164Y-93330215D01*
X69599744Y-93147262D01*
X69540727Y-93101327D01*
X69516992Y-93082853D01*
X69476179Y-93026143D01*
X69472504Y-92956370D01*
X69507136Y-92895687D01*
X69516992Y-92887147D01*
X69541256Y-92868260D01*
X69599744Y-92822738D01*
X69768164Y-92639785D01*
X69904173Y-92431607D01*
X70004063Y-92203881D01*
X70065108Y-91962821D01*
X70085643Y-91715000D01*
X70065108Y-91467179D01*
X70004063Y-91226119D01*
X69914016Y-91020833D01*
X69904174Y-90998395D01*
X69904173Y-90998393D01*
X69768164Y-90790215D01*
X69599744Y-90607262D01*
X69540727Y-90561327D01*
X69516992Y-90542853D01*
X69476179Y-90486143D01*
X69472504Y-90416370D01*
X69507136Y-90355687D01*
X69516992Y-90347147D01*
X69558651Y-90314722D01*
X69599744Y-90282738D01*
X69768164Y-90099785D01*
X69904173Y-89891607D01*
X70004063Y-89663881D01*
X70065108Y-89422821D01*
X70085643Y-89175000D01*
X70065108Y-88927179D01*
X70004063Y-88686119D01*
X69904173Y-88458393D01*
X69768164Y-88250215D01*
X69599744Y-88067262D01*
X69540727Y-88021327D01*
X69516992Y-88002853D01*
X69476179Y-87946143D01*
X69472504Y-87876370D01*
X69507136Y-87815687D01*
X69516992Y-87807147D01*
X69568649Y-87766940D01*
X69599744Y-87742738D01*
X69768164Y-87559785D01*
X69904173Y-87351607D01*
X70004063Y-87123881D01*
X70065108Y-86882821D01*
X70085643Y-86635000D01*
X70065108Y-86387179D01*
X70004063Y-86146119D01*
X69904173Y-85918393D01*
X69768164Y-85710215D01*
X69599744Y-85527262D01*
X69540727Y-85481327D01*
X69516992Y-85462853D01*
X69476179Y-85406143D01*
X69472504Y-85336370D01*
X69507136Y-85275687D01*
X69516992Y-85267147D01*
X69558651Y-85234722D01*
X69599744Y-85202738D01*
X69768164Y-85019785D01*
X69904173Y-84811607D01*
X70004063Y-84583881D01*
X70065108Y-84342821D01*
X70085643Y-84095000D01*
X70065108Y-83847179D01*
X70004063Y-83606119D01*
X69904173Y-83378393D01*
X69768164Y-83170215D01*
X69599744Y-82987262D01*
X69540727Y-82941327D01*
X69516992Y-82922853D01*
X69476179Y-82866143D01*
X69472504Y-82796370D01*
X69507136Y-82735687D01*
X69516992Y-82727147D01*
X69541830Y-82707814D01*
X69599744Y-82662738D01*
X69768164Y-82479785D01*
X69904173Y-82271607D01*
X70004063Y-82043881D01*
X70065108Y-81802821D01*
X70085643Y-81555000D01*
X70065108Y-81307179D01*
X70004063Y-81066119D01*
X69904173Y-80838393D01*
X69768164Y-80630215D01*
X69599744Y-80447262D01*
X69540727Y-80401327D01*
X69516992Y-80382853D01*
X69476179Y-80326143D01*
X69472504Y-80256370D01*
X69507136Y-80195687D01*
X69516992Y-80187147D01*
X69558651Y-80154722D01*
X69599744Y-80122738D01*
X69768164Y-79939785D01*
X69904173Y-79731607D01*
X70004063Y-79503881D01*
X70065108Y-79262821D01*
X70085643Y-79015000D01*
X70065108Y-78767179D01*
X70004063Y-78526119D01*
X69904173Y-78298393D01*
X69768164Y-78090215D01*
X69599744Y-77907262D01*
X69532810Y-77855165D01*
X69516992Y-77842853D01*
X69476179Y-77786143D01*
X69472504Y-77716370D01*
X69507136Y-77655687D01*
X69516992Y-77647147D01*
X69558651Y-77614722D01*
X69599744Y-77582738D01*
X69768164Y-77399785D01*
X69904173Y-77191607D01*
X70004063Y-76963881D01*
X70065108Y-76722821D01*
X70085643Y-76475000D01*
X70065108Y-76227179D01*
X70004063Y-75986119D01*
X69904173Y-75758393D01*
X69768164Y-75550215D01*
X69599744Y-75367262D01*
X69540727Y-75321327D01*
X69516992Y-75302853D01*
X69476179Y-75246143D01*
X69472504Y-75176370D01*
X69507136Y-75115687D01*
X69516992Y-75107147D01*
X69558651Y-75074722D01*
X69599744Y-75042738D01*
X69768164Y-74859785D01*
X69904173Y-74651607D01*
X70004063Y-74423881D01*
X70065108Y-74182821D01*
X70085643Y-73935000D01*
X70065108Y-73687179D01*
X70004063Y-73446119D01*
X69904173Y-73218393D01*
X69768164Y-73010215D01*
X69599744Y-72827262D01*
X69540727Y-72781327D01*
X69516992Y-72762853D01*
X69476179Y-72706143D01*
X69472504Y-72636370D01*
X69507136Y-72575687D01*
X69516992Y-72567147D01*
X69558651Y-72534722D01*
X69599744Y-72502738D01*
X69768164Y-72319785D01*
X69904173Y-72111607D01*
X70004063Y-71883881D01*
X70065108Y-71642821D01*
X70085643Y-71395000D01*
X70065108Y-71147179D01*
X70004063Y-70906119D01*
X69904173Y-70678393D01*
X69768164Y-70470215D01*
X69599744Y-70287262D01*
X69540727Y-70241327D01*
X69516992Y-70222853D01*
X69476179Y-70166143D01*
X69472504Y-70096370D01*
X69507136Y-70035687D01*
X69516992Y-70027147D01*
X69558651Y-69994722D01*
X69599744Y-69962738D01*
X69768164Y-69779785D01*
X69904173Y-69571607D01*
X70004063Y-69343881D01*
X70065108Y-69102821D01*
X70085643Y-68855000D01*
X70065108Y-68607179D01*
X70004063Y-68366119D01*
X69904173Y-68138393D01*
X69768164Y-67930215D01*
X69599744Y-67747262D01*
X69540727Y-67701327D01*
X69516992Y-67682853D01*
X69476179Y-67626143D01*
X69472504Y-67556370D01*
X69507136Y-67495687D01*
X69516992Y-67487147D01*
X69558651Y-67454722D01*
X69599744Y-67422738D01*
X69768164Y-67239785D01*
X69904173Y-67031607D01*
X70004063Y-66803881D01*
X70065108Y-66562821D01*
X70085643Y-66315000D01*
X70065108Y-66067179D01*
X70004063Y-65826119D01*
X69904173Y-65598393D01*
X69768164Y-65390215D01*
X69599744Y-65207262D01*
X69540727Y-65161327D01*
X69403514Y-65054529D01*
X69403510Y-65054526D01*
X69403509Y-65054526D01*
X69184810Y-64936172D01*
X69184806Y-64936170D01*
X69184805Y-64936170D01*
X68949615Y-64855429D01*
X68704335Y-64814500D01*
X68455665Y-64814500D01*
X68210384Y-64855429D01*
X67975194Y-64936170D01*
X67756485Y-65054529D01*
X67560259Y-65207259D01*
X67560256Y-65207261D01*
X67560256Y-65207262D01*
X67516273Y-65255040D01*
X67391837Y-65390214D01*
X67255825Y-65598395D01*
X67155938Y-65826117D01*
X67094891Y-66067183D01*
X67074356Y-66314999D01*
X67094891Y-66562816D01*
X67094891Y-66562819D01*
X67094892Y-66562821D01*
X67155937Y-66803881D01*
X67200960Y-66906523D01*
X67255825Y-67031604D01*
X67255827Y-67031607D01*
X67391836Y-67239785D01*
X67530416Y-67390323D01*
X67560256Y-67422738D01*
X67643008Y-67487147D01*
X67683821Y-67543858D01*
X67687494Y-67613631D01*
X67652863Y-67674314D01*
X67643008Y-67682853D01*
X67560256Y-67747261D01*
X67391837Y-67930214D01*
X67255825Y-68138395D01*
X67165780Y-68343678D01*
X67155937Y-68366119D01*
X67105427Y-68565576D01*
X67094891Y-68607183D01*
X67074356Y-68854999D01*
X67094891Y-69102816D01*
X67094891Y-69102819D01*
X67094892Y-69102821D01*
X67155937Y-69343881D01*
X67165341Y-69365320D01*
X67255825Y-69571604D01*
X67255827Y-69571607D01*
X67391836Y-69779785D01*
X67530416Y-69930323D01*
X67560256Y-69962738D01*
X67643008Y-70027147D01*
X67683821Y-70083858D01*
X67687494Y-70153631D01*
X67652863Y-70214314D01*
X67643008Y-70222853D01*
X67560256Y-70287261D01*
X67391837Y-70470214D01*
X67255825Y-70678395D01*
X67197867Y-70810528D01*
X67155937Y-70906119D01*
X67117681Y-71057188D01*
X67094891Y-71147183D01*
X67074356Y-71394999D01*
X67094891Y-71642816D01*
X67094891Y-71642819D01*
X67094892Y-71642821D01*
X67155937Y-71883881D01*
X67200960Y-71986523D01*
X67255825Y-72111604D01*
X67255827Y-72111607D01*
X67391836Y-72319785D01*
X67530416Y-72470323D01*
X67560256Y-72502738D01*
X67643008Y-72567147D01*
X67683821Y-72623858D01*
X67687494Y-72693631D01*
X67652863Y-72754314D01*
X67643008Y-72762853D01*
X67560256Y-72827261D01*
X67469018Y-72926373D01*
X67391836Y-73010215D01*
X67387309Y-73017144D01*
X67255825Y-73218395D01*
X67155938Y-73446117D01*
X67094891Y-73687183D01*
X67074356Y-73935000D01*
X67094891Y-74182816D01*
X67094891Y-74182819D01*
X67094892Y-74182821D01*
X67155937Y-74423881D01*
X67200960Y-74526523D01*
X67255825Y-74651604D01*
X67255827Y-74651607D01*
X67391836Y-74859785D01*
X67530416Y-75010323D01*
X67560256Y-75042738D01*
X67643008Y-75107147D01*
X67683821Y-75163858D01*
X67687494Y-75233631D01*
X67652863Y-75294314D01*
X67643008Y-75302853D01*
X67560256Y-75367261D01*
X67391837Y-75550214D01*
X67255825Y-75758395D01*
X67165780Y-75963678D01*
X67155937Y-75986119D01*
X67110630Y-76165033D01*
X67094891Y-76227183D01*
X67074356Y-76474999D01*
X67094891Y-76722816D01*
X67094891Y-76722819D01*
X67094892Y-76722821D01*
X67155937Y-76963881D01*
X67182089Y-77023502D01*
X67255825Y-77191604D01*
X67255827Y-77191607D01*
X67391836Y-77399785D01*
X67530416Y-77550323D01*
X67560256Y-77582738D01*
X67643008Y-77647147D01*
X67683821Y-77703858D01*
X67687494Y-77773631D01*
X67652863Y-77834314D01*
X67643008Y-77842853D01*
X67560256Y-77907261D01*
X67405215Y-78075680D01*
X67391836Y-78090215D01*
X67361258Y-78137019D01*
X67255825Y-78298395D01*
X67180533Y-78470046D01*
X67155937Y-78526119D01*
X67097940Y-78755141D01*
X67094891Y-78767183D01*
X67074356Y-79014999D01*
X67094891Y-79262816D01*
X67094891Y-79262819D01*
X67094892Y-79262821D01*
X67155937Y-79503881D01*
X67200960Y-79606523D01*
X67255825Y-79731604D01*
X67255827Y-79731607D01*
X67391836Y-79939785D01*
X67530416Y-80090323D01*
X67560256Y-80122738D01*
X67643008Y-80187147D01*
X67683821Y-80243858D01*
X67687494Y-80313631D01*
X67652863Y-80374314D01*
X67643008Y-80382853D01*
X67560256Y-80447261D01*
X67391837Y-80630214D01*
X67255825Y-80838395D01*
X67155938Y-81066117D01*
X67094891Y-81307183D01*
X67074356Y-81554999D01*
X67094891Y-81802816D01*
X67094891Y-81802819D01*
X67094892Y-81802821D01*
X67155937Y-82043881D01*
X67200960Y-82146523D01*
X67255825Y-82271604D01*
X67255827Y-82271607D01*
X67391836Y-82479785D01*
X67560256Y-82662737D01*
X67560256Y-82662738D01*
X67643008Y-82727147D01*
X67683821Y-82783858D01*
X67687494Y-82853631D01*
X67652863Y-82914314D01*
X67643008Y-82922853D01*
X67560256Y-82987261D01*
X67443738Y-83113834D01*
X67391836Y-83170215D01*
X67370495Y-83202880D01*
X67255825Y-83378395D01*
X67155938Y-83606117D01*
X67094891Y-83847183D01*
X67074356Y-84095000D01*
X67094891Y-84342816D01*
X67094891Y-84342819D01*
X67094892Y-84342821D01*
X67155937Y-84583881D01*
X67192542Y-84667331D01*
X67255825Y-84811604D01*
X67255827Y-84811607D01*
X67391836Y-85019785D01*
X67545387Y-85186586D01*
X67560256Y-85202738D01*
X67643008Y-85267147D01*
X67683821Y-85323858D01*
X67687494Y-85393631D01*
X67652863Y-85454314D01*
X67643008Y-85462853D01*
X67560256Y-85527261D01*
X67482215Y-85612037D01*
X67391836Y-85710215D01*
X67375970Y-85734500D01*
X67255825Y-85918395D01*
X67165780Y-86123678D01*
X67155937Y-86146119D01*
X67101775Y-86360000D01*
X67094891Y-86387183D01*
X67074356Y-86634999D01*
X67094891Y-86882816D01*
X67094891Y-86882819D01*
X67094892Y-86882821D01*
X67155937Y-87123881D01*
X67157641Y-87127765D01*
X67255825Y-87351604D01*
X67255827Y-87351607D01*
X67391836Y-87559785D01*
X67560256Y-87742738D01*
X67643008Y-87807146D01*
X67683820Y-87863856D01*
X67687495Y-87933629D01*
X67652863Y-87994312D01*
X67643009Y-88002851D01*
X67560257Y-88067260D01*
X67391837Y-88250214D01*
X67255825Y-88458395D01*
X67170759Y-88652328D01*
X67155937Y-88686119D01*
X67139393Y-88751451D01*
X67094891Y-88927183D01*
X67074356Y-89174999D01*
X67094891Y-89422816D01*
X67094891Y-89422819D01*
X67094892Y-89422821D01*
X67155937Y-89663881D01*
X67200960Y-89766523D01*
X67255825Y-89891604D01*
X67255827Y-89891607D01*
X67391836Y-90099785D01*
X67527300Y-90246938D01*
X67560256Y-90282738D01*
X67643008Y-90347147D01*
X67683821Y-90403858D01*
X67687494Y-90473631D01*
X67652863Y-90534314D01*
X67643008Y-90542853D01*
X67560256Y-90607261D01*
X67391837Y-90790214D01*
X67255825Y-90998395D01*
X67248406Y-91015310D01*
X67203450Y-91068796D01*
X67136714Y-91089486D01*
X67134850Y-91089500D01*
X67117744Y-91089500D01*
X67097236Y-91087235D01*
X67027113Y-91089439D01*
X67023219Y-91089500D01*
X66995650Y-91089500D01*
X66991794Y-91089986D01*
X66991791Y-91089987D01*
X66991735Y-91089994D01*
X66991662Y-91090003D01*
X66980043Y-91090917D01*
X66936372Y-91092289D01*
X66917128Y-91097880D01*
X66898084Y-91101824D01*
X66878208Y-91104335D01*
X66837600Y-91120413D01*
X66826554Y-91124194D01*
X66784610Y-91136382D01*
X66784607Y-91136383D01*
X66767365Y-91146579D01*
X66749904Y-91155133D01*
X66731267Y-91162512D01*
X66695931Y-91188185D01*
X66686174Y-91194595D01*
X66648580Y-91216829D01*
X66634413Y-91230996D01*
X66619624Y-91243626D01*
X66603413Y-91255404D01*
X66575572Y-91289058D01*
X66567711Y-91297697D01*
X64547228Y-93318181D01*
X64485905Y-93351666D01*
X64459547Y-93354500D01*
X58410453Y-93354500D01*
X58343414Y-93334815D01*
X58322772Y-93318181D01*
X56692261Y-91687670D01*
X56658776Y-91626347D01*
X56656471Y-91588548D01*
X56661269Y-91536765D01*
X56670236Y-91440000D01*
X62390266Y-91440000D01*
X62409160Y-91643913D01*
X62465204Y-91840883D01*
X62556483Y-92024199D01*
X62558963Y-92027481D01*
X62558965Y-92027482D01*
X63074208Y-91512238D01*
X63076046Y-91536765D01*
X63123403Y-91657428D01*
X63204222Y-91758773D01*
X63311323Y-91831793D01*
X63426295Y-91867257D01*
X62915679Y-92377871D01*
X63005348Y-92433392D01*
X63196307Y-92507370D01*
X63397609Y-92545000D01*
X63602391Y-92545000D01*
X63803692Y-92507370D01*
X63994653Y-92433392D01*
X64084318Y-92377872D01*
X64084318Y-92377871D01*
X63570655Y-91864207D01*
X63628176Y-91855538D01*
X63744964Y-91799296D01*
X63839985Y-91711129D01*
X63904797Y-91598871D01*
X63924797Y-91511244D01*
X64441034Y-92027482D01*
X64443514Y-92024200D01*
X64534796Y-91840881D01*
X64590839Y-91643913D01*
X64609733Y-91440000D01*
X64590839Y-91236086D01*
X64534795Y-91039116D01*
X64443516Y-90855802D01*
X64441034Y-90852517D01*
X64441033Y-90852517D01*
X63925791Y-91367758D01*
X63923954Y-91343235D01*
X63876597Y-91222572D01*
X63795778Y-91121227D01*
X63688677Y-91048207D01*
X63573702Y-91012742D01*
X64084319Y-90502127D01*
X63994651Y-90446607D01*
X63803692Y-90372629D01*
X63602391Y-90335000D01*
X63397609Y-90335000D01*
X63196307Y-90372629D01*
X63005345Y-90446608D01*
X62915680Y-90502126D01*
X62915679Y-90502127D01*
X63429344Y-91015792D01*
X63371824Y-91024462D01*
X63255036Y-91080704D01*
X63160015Y-91168871D01*
X63095203Y-91281129D01*
X63075202Y-91368754D01*
X62558964Y-90852516D01*
X62556483Y-90855802D01*
X62465204Y-91039116D01*
X62409160Y-91236086D01*
X62390266Y-91440000D01*
X56670236Y-91440000D01*
X56651508Y-91237894D01*
X56651332Y-91235992D01*
X56595264Y-91038935D01*
X56503944Y-90855538D01*
X56380473Y-90692037D01*
X56229069Y-90554014D01*
X56054872Y-90446155D01*
X55959205Y-90409093D01*
X55903804Y-90366520D01*
X55880214Y-90300753D01*
X55880000Y-90293467D01*
X55880000Y-90046531D01*
X55899685Y-89979492D01*
X55952489Y-89933737D01*
X55959190Y-89930910D01*
X56054875Y-89893843D01*
X56229067Y-89785987D01*
X56363011Y-89663881D01*
X56380473Y-89647962D01*
X56503944Y-89484461D01*
X56595264Y-89301064D01*
X56651332Y-89104007D01*
X56654287Y-89072110D01*
X56670236Y-88900000D01*
X56651332Y-88695995D01*
X56651332Y-88695992D01*
X56595264Y-88498935D01*
X56503944Y-88315538D01*
X56380475Y-88152040D01*
X56225961Y-88011181D01*
X56189680Y-87951469D01*
X56185500Y-87919544D01*
X56185500Y-87340454D01*
X56205185Y-87273415D01*
X56225962Y-87248817D01*
X56229064Y-87245988D01*
X56229067Y-87245987D01*
X56380474Y-87107961D01*
X56428605Y-87044226D01*
X56435744Y-87034773D01*
X56491854Y-86993137D01*
X56534698Y-86985500D01*
X58972256Y-86985500D01*
X58992762Y-86987764D01*
X58995665Y-86987672D01*
X58995667Y-86987673D01*
X59062872Y-86985561D01*
X59066768Y-86985500D01*
X59090448Y-86985500D01*
X59094350Y-86985500D01*
X59098313Y-86984999D01*
X59109962Y-86984080D01*
X59153627Y-86982709D01*
X59172859Y-86977120D01*
X59191918Y-86973174D01*
X59198196Y-86972381D01*
X59211792Y-86970664D01*
X59252407Y-86954582D01*
X59263444Y-86950803D01*
X59305390Y-86938618D01*
X59322629Y-86928422D01*
X59340102Y-86919862D01*
X59358732Y-86912486D01*
X59394064Y-86886814D01*
X59403830Y-86880400D01*
X59441418Y-86858171D01*
X59441417Y-86858171D01*
X59441420Y-86858170D01*
X59455585Y-86844004D01*
X59470373Y-86831373D01*
X59486587Y-86819594D01*
X59514438Y-86785926D01*
X59522279Y-86777309D01*
X61817771Y-84481819D01*
X61879095Y-84448334D01*
X61905453Y-84445500D01*
X62525302Y-84445500D01*
X62592341Y-84465185D01*
X62624256Y-84494773D01*
X62679526Y-84567961D01*
X62830930Y-84705985D01*
X62830932Y-84705986D01*
X62830933Y-84705987D01*
X63005125Y-84813843D01*
X63196169Y-84887853D01*
X63397560Y-84925500D01*
X63397562Y-84925500D01*
X63602440Y-84925500D01*
X63657714Y-84915167D01*
X63727229Y-84922197D01*
X63781908Y-84965693D01*
X63804391Y-85031847D01*
X63804500Y-85037055D01*
X63804500Y-85119547D01*
X63784815Y-85186586D01*
X63768179Y-85207230D01*
X63748466Y-85226942D01*
X63687142Y-85260426D01*
X63638003Y-85261147D01*
X63602440Y-85254500D01*
X63397560Y-85254500D01*
X63297750Y-85273158D01*
X63196168Y-85292147D01*
X63005126Y-85366156D01*
X62830930Y-85474014D01*
X62679526Y-85612037D01*
X62556055Y-85775538D01*
X62464735Y-85958935D01*
X62408667Y-86155992D01*
X62389764Y-86360000D01*
X62408667Y-86564007D01*
X62464735Y-86761064D01*
X62556055Y-86944461D01*
X62679526Y-87107962D01*
X62830930Y-87245985D01*
X62830932Y-87245986D01*
X62830933Y-87245987D01*
X63005125Y-87353843D01*
X63196169Y-87427853D01*
X63397560Y-87465500D01*
X63397562Y-87465500D01*
X63602442Y-87465500D01*
X63668646Y-87453123D01*
X63759172Y-87436201D01*
X63828686Y-87443231D01*
X63883365Y-87486728D01*
X63905848Y-87552882D01*
X63888996Y-87620689D01*
X63869638Y-87645770D01*
X63748468Y-87766940D01*
X63687145Y-87800425D01*
X63638003Y-87801147D01*
X63602440Y-87794500D01*
X63397560Y-87794500D01*
X63297750Y-87813158D01*
X63196168Y-87832147D01*
X63005126Y-87906156D01*
X62830930Y-88014014D01*
X62679526Y-88152037D01*
X62556055Y-88315538D01*
X62464735Y-88498935D01*
X62408667Y-88695992D01*
X62389764Y-88900000D01*
X62408667Y-89104007D01*
X62464735Y-89301064D01*
X62556055Y-89484461D01*
X62679526Y-89647962D01*
X62830930Y-89785985D01*
X62830932Y-89785986D01*
X62830933Y-89785987D01*
X63005125Y-89893843D01*
X63196169Y-89967853D01*
X63397560Y-90005500D01*
X63397562Y-90005500D01*
X63602438Y-90005500D01*
X63602440Y-90005500D01*
X63803831Y-89967853D01*
X63994875Y-89893843D01*
X64169067Y-89785987D01*
X64303011Y-89663881D01*
X64320473Y-89647962D01*
X64443944Y-89484461D01*
X64535264Y-89301064D01*
X64591332Y-89104007D01*
X64594287Y-89072110D01*
X64610236Y-88900000D01*
X64596470Y-88751448D01*
X64609885Y-88682881D01*
X64632257Y-88652331D01*
X65788788Y-87495801D01*
X65804885Y-87482906D01*
X65806873Y-87480787D01*
X65806877Y-87480786D01*
X65852949Y-87431723D01*
X65855534Y-87429055D01*
X65875120Y-87409471D01*
X65877585Y-87406292D01*
X65885167Y-87397416D01*
X65915062Y-87365582D01*
X65924712Y-87348027D01*
X65935400Y-87331757D01*
X65947671Y-87315938D01*
X65947673Y-87315936D01*
X65965026Y-87275832D01*
X65970157Y-87265362D01*
X65979253Y-87248817D01*
X65991197Y-87227092D01*
X65996175Y-87207699D01*
X66002481Y-87189282D01*
X66004018Y-87185728D01*
X66010438Y-87170896D01*
X66017272Y-87127745D01*
X66019635Y-87116331D01*
X66030500Y-87074019D01*
X66030500Y-87053982D01*
X66032027Y-87034584D01*
X66035160Y-87014804D01*
X66031050Y-86971324D01*
X66030500Y-86959655D01*
X66030500Y-73107740D01*
X66032763Y-73087239D01*
X66030561Y-73017144D01*
X66030500Y-73013250D01*
X66030500Y-72989544D01*
X66030500Y-72985650D01*
X66029998Y-72981681D01*
X66029080Y-72970024D01*
X66027709Y-72926373D01*
X66022120Y-72907140D01*
X66018174Y-72888082D01*
X66015664Y-72868206D01*
X65999588Y-72827604D01*
X65995804Y-72816553D01*
X65985569Y-72781327D01*
X65983618Y-72774610D01*
X65973414Y-72757355D01*
X65964861Y-72739895D01*
X65957486Y-72721269D01*
X65957486Y-72721268D01*
X65931808Y-72685925D01*
X65925401Y-72676171D01*
X65924428Y-72674526D01*
X65903170Y-72638580D01*
X65889006Y-72624416D01*
X65876367Y-72609617D01*
X65864595Y-72593413D01*
X65830941Y-72565573D01*
X65822299Y-72557709D01*
X63570237Y-70305646D01*
X63536752Y-70244323D01*
X63538143Y-70185872D01*
X63565063Y-70085408D01*
X63570161Y-70027145D01*
X63585659Y-69850000D01*
X63565063Y-69614592D01*
X63553545Y-69571607D01*
X63503903Y-69386337D01*
X63404035Y-69172171D01*
X63268495Y-68978599D01*
X63101401Y-68811505D01*
X62907830Y-68675965D01*
X62693663Y-68576097D01*
X62621074Y-68556647D01*
X62465407Y-68514936D01*
X62230000Y-68494340D01*
X61994592Y-68514936D01*
X61766336Y-68576097D01*
X61552170Y-68675965D01*
X61358598Y-68811505D01*
X61191505Y-68978598D01*
X61061575Y-69164159D01*
X61006998Y-69207784D01*
X60937500Y-69214978D01*
X60875145Y-69183455D01*
X60858425Y-69164159D01*
X60728494Y-68978598D01*
X60561404Y-68811508D01*
X60561401Y-68811505D01*
X60367830Y-68675965D01*
X60153663Y-68576097D01*
X60081074Y-68556647D01*
X59925407Y-68514936D01*
X59689999Y-68494340D01*
X59454592Y-68514936D01*
X59226336Y-68576097D01*
X59012170Y-68675965D01*
X58818601Y-68811503D01*
X58696285Y-68933819D01*
X58634962Y-68967303D01*
X58565270Y-68962319D01*
X58509337Y-68920447D01*
X58492422Y-68889471D01*
X58443352Y-68757911D01*
X58357188Y-68642811D01*
X58242089Y-68556647D01*
X58107371Y-68506400D01*
X58051132Y-68500354D01*
X58044518Y-68500000D01*
X57400000Y-68500000D01*
X57399999Y-69414498D01*
X57292315Y-69365320D01*
X57185763Y-69350000D01*
X57114237Y-69350000D01*
X57007685Y-69365320D01*
X56899999Y-69414498D01*
X56900000Y-68500000D01*
X56255482Y-68500000D01*
X56248867Y-68500354D01*
X56192626Y-68506400D01*
X56047333Y-68560592D01*
X55977641Y-68565576D01*
X55916318Y-68532091D01*
X55882834Y-68470768D01*
X55880000Y-68444410D01*
X55880000Y-63567764D01*
X57835787Y-63567764D01*
X57865413Y-63837016D01*
X57933928Y-64099087D01*
X58039871Y-64348392D01*
X58180982Y-64579611D01*
X58270253Y-64686881D01*
X58354255Y-64787820D01*
X58555998Y-64968582D01*
X58781910Y-65118044D01*
X58874241Y-65161327D01*
X59027177Y-65233021D01*
X59286562Y-65311058D01*
X59286569Y-65311060D01*
X59554561Y-65350500D01*
X59554564Y-65350500D01*
X59755369Y-65350500D01*
X59757631Y-65350500D01*
X59960156Y-65335677D01*
X60224553Y-65276780D01*
X60477558Y-65180014D01*
X60713777Y-65047441D01*
X60928177Y-64881888D01*
X61116186Y-64686881D01*
X61273799Y-64466579D01*
X61397656Y-64225675D01*
X61485118Y-63969305D01*
X61534319Y-63702933D01*
X61544212Y-63432235D01*
X61514586Y-63162982D01*
X61446072Y-62900912D01*
X61340130Y-62651610D01*
X61199018Y-62420390D01*
X61199017Y-62420388D01*
X61025746Y-62212181D01*
X60920759Y-62118112D01*
X60824002Y-62031418D01*
X60598090Y-61881956D01*
X60598086Y-61881954D01*
X60352822Y-61766978D01*
X60093437Y-61688941D01*
X60093431Y-61688940D01*
X59825439Y-61649500D01*
X59622369Y-61649500D01*
X59620120Y-61649664D01*
X59620109Y-61649665D01*
X59419843Y-61664322D01*
X59155449Y-61723219D01*
X58902441Y-61819986D01*
X58666223Y-61952559D01*
X58451825Y-62118109D01*
X58263813Y-62313120D01*
X58106201Y-62533420D01*
X57982342Y-62774329D01*
X57894881Y-63030695D01*
X57845680Y-63297066D01*
X57835787Y-63567764D01*
X55880000Y-63567764D01*
X55880000Y-61084000D01*
X55899685Y-61016961D01*
X55952489Y-60971206D01*
X56004000Y-60960000D01*
X72376000Y-60960000D01*
X72443039Y-60979685D01*
G37*
%TD.AperFunction*%
%TA.AperFunction,Conductor*%
G36*
X67257986Y-92479116D02*
G01*
X67313919Y-92520988D01*
X67318460Y-92527476D01*
X67391833Y-92639781D01*
X67391836Y-92639785D01*
X67530416Y-92790323D01*
X67560256Y-92822738D01*
X67643008Y-92887147D01*
X67683821Y-92943858D01*
X67687494Y-93013631D01*
X67652863Y-93074314D01*
X67643008Y-93082853D01*
X67560256Y-93147261D01*
X67405215Y-93315680D01*
X67391836Y-93330215D01*
X67375970Y-93354500D01*
X67255825Y-93538395D01*
X67155938Y-93766117D01*
X67094891Y-94007183D01*
X67074356Y-94255000D01*
X67094891Y-94502816D01*
X67094891Y-94502819D01*
X67094892Y-94502821D01*
X67155937Y-94743881D01*
X67200960Y-94846523D01*
X67255825Y-94971604D01*
X67255827Y-94971607D01*
X67391836Y-95179785D01*
X67560256Y-95362738D01*
X67643008Y-95427146D01*
X67683820Y-95483856D01*
X67687495Y-95553629D01*
X67652863Y-95614312D01*
X67643009Y-95622851D01*
X67560257Y-95687260D01*
X67391837Y-95870214D01*
X67255825Y-96078395D01*
X67155938Y-96306117D01*
X67094891Y-96547183D01*
X67074356Y-96794999D01*
X67094891Y-97042816D01*
X67094891Y-97042819D01*
X67094892Y-97042821D01*
X67155937Y-97283881D01*
X67200960Y-97386523D01*
X67255825Y-97511604D01*
X67255827Y-97511607D01*
X67391836Y-97719785D01*
X67530416Y-97870323D01*
X67560256Y-97902738D01*
X67663744Y-97983286D01*
X67704557Y-98039996D01*
X67711343Y-98088823D01*
X67709941Y-98111389D01*
X68438634Y-98840081D01*
X68434839Y-98840627D01*
X68301438Y-98901549D01*
X68190605Y-98997587D01*
X68111318Y-99120960D01*
X68088867Y-99197419D01*
X67356564Y-98465116D01*
X67256266Y-98618634D01*
X67156413Y-98846278D01*
X67095386Y-99087267D01*
X67074858Y-99334999D01*
X67095386Y-99582732D01*
X67156413Y-99823721D01*
X67256268Y-100051370D01*
X67356563Y-100204882D01*
X67356564Y-100204882D01*
X68088866Y-99472580D01*
X68111318Y-99549040D01*
X68190605Y-99672413D01*
X68301438Y-99768451D01*
X68434839Y-99829373D01*
X68438634Y-99829918D01*
X67709942Y-100558610D01*
X67711343Y-100581178D01*
X67695850Y-100649308D01*
X67663744Y-100686714D01*
X67560256Y-100767261D01*
X67391837Y-100950214D01*
X67255825Y-101158395D01*
X67248406Y-101175310D01*
X67203450Y-101228796D01*
X67136714Y-101249486D01*
X67134850Y-101249500D01*
X66625452Y-101249500D01*
X66558413Y-101229815D01*
X66537771Y-101213181D01*
X64322177Y-98997587D01*
X62095802Y-96771211D01*
X62082906Y-96755113D01*
X62031775Y-96707098D01*
X62028978Y-96704387D01*
X62012227Y-96687636D01*
X62009471Y-96684880D01*
X62006290Y-96682412D01*
X61997422Y-96674837D01*
X61965582Y-96644938D01*
X61948024Y-96635285D01*
X61931764Y-96624604D01*
X61915936Y-96612327D01*
X61875851Y-96594980D01*
X61865361Y-96589841D01*
X61827091Y-96568802D01*
X61807691Y-96563821D01*
X61789284Y-96557519D01*
X61770897Y-96549562D01*
X61727758Y-96542729D01*
X61716324Y-96540361D01*
X61674019Y-96529500D01*
X61653984Y-96529500D01*
X61634586Y-96527973D01*
X61627162Y-96526797D01*
X61614805Y-96524840D01*
X61614804Y-96524840D01*
X61581751Y-96527964D01*
X61571325Y-96528950D01*
X61559656Y-96529500D01*
X56825452Y-96529500D01*
X56758413Y-96509815D01*
X56737771Y-96493181D01*
X55916318Y-95671728D01*
X55882833Y-95610405D01*
X55880000Y-95584056D01*
X55880000Y-92943948D01*
X55899684Y-92876913D01*
X55952488Y-92831158D01*
X56021646Y-92821214D01*
X56085202Y-92850239D01*
X56091680Y-92856271D01*
X57599196Y-94363787D01*
X57612096Y-94379888D01*
X57663223Y-94427900D01*
X57666020Y-94430611D01*
X57685529Y-94450120D01*
X57688709Y-94452587D01*
X57697571Y-94460155D01*
X57729418Y-94490062D01*
X57746970Y-94499711D01*
X57763238Y-94510397D01*
X57779064Y-94522673D01*
X57819146Y-94540017D01*
X57829633Y-94545155D01*
X57867907Y-94566197D01*
X57876410Y-94568379D01*
X57887308Y-94571178D01*
X57905713Y-94577478D01*
X57924104Y-94585437D01*
X57967250Y-94592270D01*
X57978668Y-94594635D01*
X58020981Y-94605500D01*
X58041016Y-94605500D01*
X58060415Y-94607027D01*
X58080196Y-94610160D01*
X58123674Y-94606050D01*
X58135344Y-94605500D01*
X64687256Y-94605500D01*
X64707762Y-94607764D01*
X64710665Y-94607672D01*
X64710667Y-94607673D01*
X64777872Y-94605561D01*
X64781768Y-94605500D01*
X64805448Y-94605500D01*
X64809350Y-94605500D01*
X64813313Y-94604999D01*
X64824962Y-94604080D01*
X64868627Y-94602709D01*
X64887859Y-94597120D01*
X64906918Y-94593174D01*
X64914099Y-94592267D01*
X64926792Y-94590664D01*
X64967407Y-94574582D01*
X64978444Y-94570803D01*
X65020390Y-94558618D01*
X65037629Y-94548422D01*
X65055102Y-94539862D01*
X65073732Y-94532486D01*
X65109064Y-94506814D01*
X65118830Y-94500400D01*
X65156418Y-94478171D01*
X65156417Y-94478171D01*
X65156420Y-94478170D01*
X65170585Y-94464004D01*
X65185373Y-94451373D01*
X65201587Y-94439594D01*
X65229438Y-94405926D01*
X65237279Y-94397309D01*
X67126973Y-92507615D01*
X67188294Y-92474132D01*
X67257986Y-92479116D01*
G37*
%TD.AperFunction*%
%TA.AperFunction,Conductor*%
G36*
X95164495Y-97830799D02*
G01*
X95222111Y-97870323D01*
X95249213Y-97934722D01*
X95250000Y-97948672D01*
X95250000Y-98367189D01*
X95230315Y-98434228D01*
X95213681Y-98454870D01*
X94471132Y-99197418D01*
X94448682Y-99120960D01*
X94369395Y-98997587D01*
X94258562Y-98901549D01*
X94125161Y-98840627D01*
X94121366Y-98840081D01*
X94850056Y-98111390D01*
X94848655Y-98088825D01*
X94864147Y-98020694D01*
X94896250Y-97983290D01*
X94999744Y-97902738D01*
X95034771Y-97864688D01*
X95094657Y-97828699D01*
X95164495Y-97830799D01*
G37*
%TD.AperFunction*%
%TA.AperFunction,Conductor*%
G36*
X57400000Y-71200000D02*
G01*
X58044518Y-71200000D01*
X58051132Y-71199645D01*
X58107371Y-71193599D01*
X58242089Y-71143352D01*
X58357188Y-71057188D01*
X58443352Y-70942089D01*
X58492422Y-70810528D01*
X58534294Y-70754595D01*
X58599758Y-70730178D01*
X58668031Y-70745030D01*
X58696285Y-70766181D01*
X58818599Y-70888495D01*
X59012170Y-71024035D01*
X59226337Y-71123903D01*
X59454592Y-71185063D01*
X59690000Y-71205659D01*
X59925408Y-71185063D01*
X60025873Y-71158143D01*
X60095721Y-71159806D01*
X60145647Y-71190237D01*
X63768181Y-74812771D01*
X63801666Y-74874094D01*
X63804500Y-74900452D01*
X63804500Y-82602944D01*
X63784815Y-82669983D01*
X63732011Y-82715738D01*
X63662853Y-82725682D01*
X63657723Y-82724834D01*
X63602440Y-82714500D01*
X63397560Y-82714500D01*
X63397556Y-82714500D01*
X63395688Y-82714849D01*
X63392239Y-82714500D01*
X63386070Y-82714500D01*
X63386070Y-82713875D01*
X63326174Y-82707814D01*
X63285230Y-82680640D01*
X58489413Y-77884822D01*
X58455928Y-77823499D01*
X58457319Y-77765047D01*
X58460138Y-77754526D01*
X58475635Y-77696692D01*
X58495468Y-77470000D01*
X60885033Y-77470000D01*
X60904858Y-77696602D01*
X60963733Y-77916326D01*
X61059866Y-78122484D01*
X61110972Y-78195471D01*
X61110974Y-78195472D01*
X61792046Y-77514399D01*
X61804835Y-77595148D01*
X61862359Y-77708045D01*
X61951955Y-77797641D01*
X62064852Y-77855165D01*
X62145599Y-77867953D01*
X61464526Y-78549025D01*
X61464526Y-78549026D01*
X61537515Y-78600133D01*
X61743673Y-78696266D01*
X61963397Y-78755141D01*
X62190000Y-78774966D01*
X62416602Y-78755141D01*
X62636326Y-78696266D01*
X62842480Y-78600134D01*
X62915472Y-78549025D01*
X62234401Y-77867953D01*
X62315148Y-77855165D01*
X62428045Y-77797641D01*
X62517641Y-77708045D01*
X62575165Y-77595148D01*
X62587953Y-77514399D01*
X63269025Y-78195472D01*
X63320134Y-78122480D01*
X63416266Y-77916326D01*
X63475141Y-77696602D01*
X63494966Y-77470000D01*
X63475141Y-77243397D01*
X63416266Y-77023673D01*
X63320133Y-76817515D01*
X63269025Y-76744526D01*
X62587953Y-77425597D01*
X62575165Y-77344852D01*
X62517641Y-77231955D01*
X62428045Y-77142359D01*
X62315148Y-77084835D01*
X62234399Y-77072045D01*
X62915472Y-76390973D01*
X62915471Y-76390972D01*
X62842484Y-76339866D01*
X62636326Y-76243733D01*
X62416602Y-76184858D01*
X62189999Y-76165033D01*
X61963397Y-76184858D01*
X61743672Y-76243733D01*
X61537516Y-76339865D01*
X61464526Y-76390973D01*
X62145598Y-77072046D01*
X62064852Y-77084835D01*
X61951955Y-77142359D01*
X61862359Y-77231955D01*
X61804835Y-77344852D01*
X61792046Y-77425599D01*
X61110973Y-76744526D01*
X61110973Y-76744527D01*
X61059865Y-76817516D01*
X60963733Y-77023672D01*
X60904858Y-77243397D01*
X60885033Y-77470000D01*
X58495468Y-77470000D01*
X58475635Y-77243308D01*
X58416739Y-77023504D01*
X58320568Y-76817266D01*
X58304971Y-76794990D01*
X58190046Y-76630859D01*
X58029140Y-76469953D01*
X57842735Y-76339432D01*
X57636497Y-76243261D01*
X57416689Y-76184364D01*
X57189999Y-76164531D01*
X56963310Y-76184364D01*
X56743502Y-76243261D01*
X56537264Y-76339432D01*
X56350859Y-76469953D01*
X56189952Y-76630860D01*
X56105575Y-76751365D01*
X56050998Y-76794990D01*
X55981500Y-76802184D01*
X55919145Y-76770661D01*
X55883731Y-76710432D01*
X55880000Y-76680242D01*
X55880000Y-71255589D01*
X55899685Y-71188550D01*
X55952489Y-71142795D01*
X56021647Y-71132851D01*
X56047334Y-71139407D01*
X56192628Y-71193599D01*
X56248867Y-71199645D01*
X56255482Y-71200000D01*
X56899999Y-71200000D01*
X56899999Y-70285501D01*
X57007685Y-70334680D01*
X57114237Y-70350000D01*
X57185763Y-70350000D01*
X57292315Y-70334680D01*
X57399999Y-70285501D01*
X57400000Y-71200000D01*
G37*
%TD.AperFunction*%
%TD*%
M02*
